<?xml version="1.0" encoding="UTF-8"?>
<svg xmlns="http://www.w3.org/2000/svg" width="652" height="192" viewBox="0 0 652 192" fill="none">
  <g clip-path="url(#clip0_2_713)">
    <path fill-rule="evenodd" clip-rule="evenodd" d="M20.3618 148.092L22.0075 104.604H34.3989L38.5617 144.25L20.3618 148.092Z" fill="white"></path>
    <path fill-rule="evenodd" clip-rule="evenodd" d="M78.9624 137.825L54.2441 129.302V188.352L78.9624 189.417V137.825Z" fill="white"></path>
    <path fill-rule="evenodd" clip-rule="evenodd" d="M10.5518 147.931L54.2443 129.302V188.352L10.5518 189.417V147.931Z" fill="white"></path>
    <path fill-rule="evenodd" clip-rule="evenodd" d="M0.0322266 32.9955L54.2445 0V188.901L17.9417 189.417L0.0322266 189.966V32.9955Z" fill="white"></path>
    <path fill-rule="evenodd" clip-rule="evenodd" d="M113.717 38.8391L54.2446 0V188.901L113.717 189.417V38.8391Z" fill="white"></path>
    <path fill-rule="evenodd" clip-rule="evenodd" d="M78.9629 91.5284L113.717 79.2924V189.417L78.9629 188.901V91.5284Z" fill="white"></path>
    <path fill-rule="evenodd" clip-rule="evenodd" d="M153.182 101.634L113.717 79.2924V188.901L153.182 190.483V101.634Z" fill="white"></path>
    <g opacity="0.5">
      <path fill-rule="evenodd" clip-rule="evenodd" d="M110.909 168.496H116.814L119.009 189.708L108.715 189.159L110.909 168.496Z" fill="white"></path>
      <path d="M113.846 182.573C120.85 182.573 126.528 175.794 126.528 167.431C126.528 159.068 120.85 152.289 113.846 152.289C106.842 152.289 101.164 159.068 101.164 167.431C101.164 175.794 106.842 182.573 113.846 182.573Z" fill="white"></path>
    </g>
    <g opacity="0.5">
      <path fill-rule="evenodd" clip-rule="evenodd" d="M51.4049 171.467H56.6971L58.6332 188.094H49.4688L51.4049 171.467Z" fill="white"></path>
      <path d="M54.0511 183.606C59.7006 183.606 64.2805 178.272 64.2805 171.693C64.2805 165.113 59.7006 159.779 54.0511 159.779C48.4016 159.779 43.8218 165.113 43.8218 171.693C43.8218 178.272 48.4016 183.606 54.0511 183.606Z" fill="white"></path>
    </g>
    <g opacity="0.5">
      <path fill-rule="evenodd" clip-rule="evenodd" d="M23.9115 178.666H27.7516L29.1714 189.224H22.4917L23.9115 178.666Z" fill="white"></path>
      <path d="M25.8155 185.93C29.5046 185.93 32.4952 182.317 32.4952 177.859C32.4952 173.401 29.5046 169.788 25.8155 169.788C22.1264 169.788 19.1357 173.401 19.1357 177.859C19.1357 182.317 22.1264 185.93 25.8155 185.93Z" fill="white"></path>
    </g>
    <g opacity="0.5">
      <path fill-rule="evenodd" clip-rule="evenodd" d="M137.951 179.215H142.469L144.115 190.45H136.306L137.951 179.215Z" fill="white"></path>
      <path d="M140.21 186.544C144.719 186.544 148.374 182.511 148.374 177.536C148.374 172.562 144.719 168.529 140.21 168.529C135.701 168.529 132.046 172.562 132.046 177.536C132.046 182.511 135.701 186.544 140.21 186.544Z" fill="white"></path>
    </g>
    <path d="M0.0322266 191.548V189.417C25.6863 187.997 51.1467 187.286 76.6394 187.286C102.132 187.286 127.657 187.997 153.182 189.417V191.548C127.689 190.127 102.197 189.417 76.6394 189.417C51.0822 189.417 25.654 190.127 0.0322266 191.548Z" fill="white"></path>
    <path fill-rule="evenodd" clip-rule="evenodd" d="M0 190.838C24.9764 189.03 50.3077 188.158 76.0586 188.158C101.809 188.158 127.528 189.062 153.247 190.838V192H0V190.838Z" fill="white"></path>
    <path fill-rule="evenodd" clip-rule="evenodd" d="M227.24 127.107H213.913V171.822H201.328V127.107H187.904V117.034H227.24V127.107ZM244.02 171.822H232.145L232.242 130.594H244.02V138.245C244.794 135.856 246.053 133.951 247.796 132.498C249.57 131.078 251.603 130.335 253.927 130.335C255.217 130.335 256.25 130.432 257.025 130.658V141.893C255.734 141.312 254.249 140.989 252.539 140.989C249.99 140.989 247.925 141.926 246.376 143.798C244.794 145.671 244.02 148.157 244.02 151.224V171.789V171.822ZM275.128 163.686C276.806 163.686 278.096 163.169 279.032 162.136C279.968 161.103 280.42 159.683 280.42 157.907V154.904H276.612C274.611 154.904 273.062 155.324 271.965 156.196C270.868 157.067 270.352 158.165 270.352 159.521C270.352 162.298 271.965 163.654 275.16 163.654L275.128 163.686ZM280.968 166.785C279.226 170.304 275.837 172.08 270.739 172.08C266.738 172.08 263.607 170.95 261.349 168.658C259.09 166.366 257.96 163.524 257.96 160.135C257.96 156.163 259.412 153.096 262.317 150.901C265.221 148.706 269.513 147.608 275.192 147.608H280.387V144.767C280.387 141.312 278.096 139.569 273.482 139.569C268.867 139.569 264.93 140.828 261.123 143.314V132.66C264.382 130.82 269.061 129.883 275.192 129.883C281.323 129.883 285.389 131.142 288.261 133.661C291.133 136.179 292.553 140.085 292.553 145.412V171.822H280.936V166.785H280.968ZM337.439 171.822H325.564V147.253C325.564 144.799 324.984 142.959 323.854 141.667C322.725 140.408 321.111 139.763 319.046 139.763C316.884 139.763 315.077 140.602 313.657 142.313C312.237 144.024 311.495 146.575 311.495 149.997V171.789H299.62V130.561H311.495V137.567C312.528 135.275 314.109 133.499 316.239 132.176C318.368 130.852 320.95 130.174 323.919 130.174C328.146 130.174 331.437 131.433 333.825 133.951C336.213 136.469 337.407 140.182 337.407 145.057V171.822H337.439ZM372.613 159.392C372.613 163.46 371.161 166.592 368.224 168.819C365.288 171.047 361.416 172.145 356.607 172.145C351.799 172.145 347.443 171.305 344.087 169.626V159.069C347.83 161.684 351.767 162.976 355.962 162.976C358.931 162.976 360.447 162.039 360.447 160.135C360.447 159.65 360.318 159.198 360.028 158.746C359.738 158.294 359.286 157.907 358.64 157.519C357.995 157.132 357.382 156.841 356.866 156.583C356.317 156.325 355.543 156.002 354.51 155.582C353.477 155.163 352.703 154.807 352.154 154.517C346.668 151.902 343.958 148.028 343.958 142.797C343.958 138.794 345.475 135.662 348.54 133.435C351.606 131.207 355.413 130.109 359.963 130.109C364.191 130.109 367.708 130.69 370.515 131.82V141.99C367.643 140.311 364.287 139.472 360.447 139.472C359.028 139.472 357.963 139.763 357.188 140.311C356.414 140.893 356.059 141.603 356.059 142.475C356.059 142.959 356.188 143.411 356.478 143.863C356.769 144.315 357.188 144.702 357.834 145.09C358.447 145.477 359.06 145.8 359.608 146.09C360.189 146.381 360.964 146.768 361.964 147.188C362.964 147.608 363.771 147.995 364.352 148.318C366.837 149.61 368.837 151.127 370.354 152.838C371.871 154.549 372.645 156.712 372.645 159.392H372.613ZM389.49 187.028H377.615V130.594H389.49V136.921C392.362 132.369 396.492 130.077 401.913 130.077C407.335 130.077 411.497 131.95 414.724 135.727C417.951 139.504 419.565 144.605 419.565 151.062C419.565 157.519 418.016 162.265 414.886 166.269C411.756 170.272 407.464 172.274 401.913 172.274C396.363 172.274 392.2 170.078 389.49 165.688V186.996V187.028ZM389.49 150.772C389.49 154.291 390.361 157.1 392.104 159.231C393.846 161.329 396.073 162.394 398.783 162.394C401.494 162.394 403.495 161.394 405.108 159.424C406.722 157.455 407.561 154.743 407.561 151.321C407.561 147.576 406.722 144.735 405.076 142.83C403.43 140.893 401.333 139.956 398.783 139.956C396.234 139.956 394.137 140.893 392.297 142.797C390.458 144.702 389.522 147.35 389.522 150.772H389.49ZM440.088 163.686C441.766 163.686 443.057 163.169 443.992 162.136C444.928 161.103 445.38 159.683 445.38 157.907V154.904H441.572C439.572 154.904 438.023 155.324 436.926 156.196C435.828 157.067 435.312 158.165 435.312 159.521C435.312 162.298 436.926 163.654 440.12 163.654L440.088 163.686ZM445.929 166.785C444.186 170.304 440.766 172.08 435.699 172.08C431.698 172.08 428.568 170.95 426.309 168.658C424.05 166.366 422.921 163.524 422.921 160.135C422.921 156.163 424.373 153.096 427.277 150.901C430.181 148.706 434.473 147.608 440.152 147.608H445.348V144.767C445.348 141.312 443.057 139.569 438.442 139.569C433.828 139.569 429.891 140.828 426.083 143.314V132.66C429.342 130.82 434.021 129.883 440.152 129.883C446.284 129.883 450.35 131.142 453.221 133.661C456.093 136.179 457.513 140.085 457.513 145.412V171.822H445.896V166.785H445.929ZM476.391 171.822H464.516L464.613 130.594H476.391V138.245C477.165 135.856 478.424 133.951 480.166 132.498C481.941 131.078 483.974 130.335 486.297 130.335C487.588 130.335 488.621 130.432 489.395 130.658V141.893C488.105 141.312 486.62 140.989 484.91 140.989C482.361 140.989 480.295 141.926 478.746 143.798C477.198 145.671 476.391 148.157 476.391 151.224V171.789V171.822ZM524.73 169.465C521.923 171.305 517.599 172.241 511.822 172.241C505.046 172.241 499.786 170.272 496.011 166.333C492.235 162.395 490.363 157.358 490.363 151.159C490.363 144.605 492.203 139.472 495.849 135.759C499.496 132.046 504.013 130.174 509.37 130.174C514.727 130.174 519.244 131.788 522.439 135.017C525.634 138.245 527.247 143.056 527.247 149.448C527.247 150.707 527.021 152.838 526.602 155.873H502.4C503.207 158.165 504.626 159.909 506.627 161.168C508.628 162.427 511.048 163.04 513.855 163.04C518.018 163.04 521.665 161.878 524.73 159.553V169.465ZM509.854 139.214C507.95 139.214 506.272 139.892 504.82 141.28C503.368 142.668 502.368 144.702 501.884 147.414H516.179V146.446C515.792 141.635 513.694 139.214 509.854 139.214ZM571.166 171.822H559.291V147.253C559.291 144.799 558.71 142.959 557.58 141.667C556.451 140.408 554.837 139.763 552.772 139.763C550.61 139.763 548.803 140.602 547.383 142.313C545.963 144.024 545.221 146.575 545.221 149.997V171.789H533.346V130.561H545.221V137.567C546.254 135.275 547.835 133.499 549.965 132.176C552.094 130.852 554.676 130.174 557.645 130.174C561.872 130.174 565.164 131.433 567.551 133.951C569.939 136.469 571.133 140.182 571.133 145.057V171.822H571.166ZM609.017 169.852C605.823 171.596 601.983 172.467 597.465 172.467C591.302 172.467 586.203 170.498 582.202 166.559C578.2 162.62 576.2 157.552 576.2 151.321C576.296 145.154 578.297 140.021 582.202 135.985C586.106 131.95 591.431 129.916 598.207 129.916C602.37 129.916 605.984 130.69 609.017 132.272V142.442C606.145 140.667 602.951 139.763 599.433 139.763C596.142 139.763 593.431 140.763 591.398 142.733C589.333 144.702 588.268 147.576 588.236 151.321C588.462 154.937 589.527 157.778 591.495 159.779C593.431 161.781 596.013 162.782 599.208 162.782C602.628 162.782 605.887 161.846 609.05 159.941V169.852H609.017ZM637.124 170.595C632.832 182.153 626.314 187.9 617.536 187.9C615.858 187.9 614.342 187.771 612.987 187.48V178.053C613.858 178.279 614.761 178.376 615.762 178.376C620.247 178.376 623.506 175.954 625.507 171.144L609.566 130.561H622.474L626.959 143.411C628.089 146.704 629.024 149.577 629.767 151.934C630.509 154.323 630.96 155.905 631.122 156.648L631.38 157.778C631.961 155.615 633.445 150.804 635.769 143.379L639.835 130.529H652.032L637.156 170.53L637.124 170.595Z" fill="white"></path>
    <path fill-rule="evenodd" clip-rule="evenodd" d="M212.46 96.0808H188.807V41.2928H210.105C216.107 41.2928 220.689 42.7134 223.852 45.5545C226.982 48.3956 228.563 52.0115 228.563 56.4023C228.563 59.2757 227.788 61.7939 226.272 63.957C224.755 66.1201 222.787 67.573 220.334 68.3478C226.659 70.2526 229.854 74.5143 229.854 81.1973C229.854 85.5235 228.305 89.1072 225.175 91.8837C222.044 94.6602 217.817 96.0808 212.46 96.0808ZM208.007 51.2689H201.328V63.5373H205.974C209.234 63.5373 211.686 62.9562 213.332 61.7616C214.977 60.5671 215.816 58.9851 215.816 57.048C215.816 53.2061 213.203 51.2689 208.007 51.2689ZM208.007 73.3843H201.328V86.0724H207.911C214.074 86.0724 217.172 83.9738 217.172 79.7445C217.172 75.5151 214.106 73.4166 207.975 73.4166L208.007 73.3843ZM272.675 96.0808H260.8V89.4946C258.638 94.1114 254.475 96.4036 248.279 96.4036C244.052 96.4036 240.761 95.2091 238.405 92.8523C236.049 90.4954 234.855 87.0086 234.855 82.3919V54.8203H246.73V79.7122C246.73 84.5227 248.828 86.9441 253.055 86.9441C258.218 86.9441 260.768 83.4896 260.768 76.6128V54.8203H272.643V96.0485L272.675 96.0808ZM292.391 96.0808H280.516V54.8526H292.391V96.0808ZM291.326 38.032C292.682 39.388 293.359 41.0023 293.359 42.9071C293.359 44.8119 292.682 46.4262 291.326 47.7821C289.971 49.1381 288.358 49.8161 286.454 49.8161C284.55 49.8161 282.937 49.1381 281.581 47.7821C280.226 46.4262 279.548 44.8119 279.548 42.9071C279.548 41.0023 280.226 39.388 281.581 38.032C282.937 36.676 284.55 35.998 286.454 35.998C288.358 35.998 289.971 36.676 291.326 38.032ZM312.527 96.0808H300.652V38.6131H312.527V96.1131V96.0808ZM330.372 75.5797C330.372 78.8728 331.244 81.5524 332.986 83.5864C334.729 85.6204 336.826 86.6212 339.311 86.6212C342.021 86.6212 344.216 85.5558 345.894 83.4573C347.572 81.3587 348.411 78.5176 348.411 74.9985C348.411 71.4795 347.507 68.9289 345.7 67.0241C343.893 65.1193 341.731 64.183 339.246 64.183C336.762 64.183 334.664 65.1839 332.954 67.1855C331.244 69.1872 330.405 71.996 330.405 75.5474L330.372 75.5797ZM360.286 96.0808H348.411V89.656C345.636 94.2728 341.537 96.565 336.052 96.565C330.566 96.565 326.403 94.4665 323.176 90.3017C319.949 86.1369 318.336 81.1327 318.336 75.3537C318.336 68.8644 320.014 63.731 323.37 59.9859C326.726 56.2409 330.985 54.3683 336.116 54.3683C341.247 54.3683 345.571 56.6606 348.379 61.2128V38.6131H360.254V96.1131L360.286 96.0808ZM380.002 96.0808H368.127V54.8526H380.002V96.0808ZM378.937 38.032C380.293 39.388 380.97 41.0023 380.97 42.9071C380.97 44.8119 380.293 46.4262 378.937 47.7821C377.582 49.1381 375.969 49.8161 374.065 49.8161C372.161 49.8161 370.547 49.1381 369.192 47.7821C367.837 46.4262 367.159 44.8119 367.159 42.9071C367.159 41.0023 367.837 39.388 369.192 38.032C370.547 36.676 372.161 35.998 374.065 35.998C375.969 35.998 377.582 36.676 378.937 38.032ZM425.663 96.0808H413.788V71.5117C413.788 69.0581 413.207 67.2178 412.078 65.9264C410.949 64.635 409.335 64.0216 407.27 64.0216C405.108 64.0216 403.301 64.861 401.881 66.5721C400.461 68.2832 399.719 70.8338 399.719 74.256V96.0485H387.844V54.8203H399.719V61.8262C400.751 59.5339 402.333 57.7583 404.462 56.4346C406.592 55.1109 409.174 54.4329 412.143 54.4329C416.37 54.4329 419.661 55.692 422.049 58.2103C424.437 60.7285 425.631 64.4413 425.631 69.3164V96.0808H425.663ZM470.905 92.1097C470.905 98.7282 468.936 103.7 464.967 107.025C460.998 110.351 456.061 112.03 450.091 112.03C444.121 112.03 439.216 110.997 434.892 108.93V96.8233C438.7 99.8581 443.347 101.376 448.865 101.376C452.447 101.376 455.028 100.601 456.674 99.0833C458.288 97.5659 459.127 95.1768 459.127 91.916V89.1395C456.739 92.82 452.963 94.6602 447.736 94.6602C443.186 94.6602 439.281 92.9814 435.99 89.6237C432.698 86.2661 431.085 81.2619 431.085 74.6757C431.085 68.8321 432.666 63.9893 435.828 60.1474C438.991 56.3054 443.153 54.4006 448.316 54.4006C453.189 54.4006 456.803 56.3377 459.127 60.2442V54.788H470.905V92.0128V92.1097ZM443.411 74.7726C443.411 78.1948 444.057 80.7776 445.348 82.5856C446.638 84.3613 448.51 85.2652 450.962 85.2652C453.415 85.2652 455.512 84.2967 456.932 82.3919C458.352 80.487 459.094 78.1625 459.094 75.4505C459.094 68.0895 456.416 64.3767 451.059 64.3767C448.671 64.3767 446.8 65.313 445.444 67.1532C444.089 68.9935 443.411 71.544 443.411 74.8048V74.7726Z" fill="white"></path>
    <path fill-rule="evenodd" clip-rule="evenodd" d="M20.3618 148.092L22.0075 104.604H34.3989L38.5617 144.25L20.3618 148.092Z" fill="#62B3AE"></path>
    <path fill-rule="evenodd" clip-rule="evenodd" d="M78.9624 137.825L54.2441 129.302V188.352L78.9624 189.417V137.825Z" fill="#65C29A"></path>
    <path fill-rule="evenodd" clip-rule="evenodd" d="M10.5518 147.931L54.2443 129.302V188.352L10.5518 189.417V147.931Z" fill="#84CCAC"></path>
    <path opacity="0.5" fill-rule="evenodd" clip-rule="evenodd" d="M0.0322266 32.9955L54.2445 0V188.901L17.9417 189.417L0.0322266 189.966V32.9955Z" fill="#1A88C0"></path>
    <path opacity="0.5" fill-rule="evenodd" clip-rule="evenodd" d="M113.717 38.8391L54.2446 0V188.901L113.717 189.417V38.8391Z" fill="#88C0DC"></path>
    <g opacity="0.5">
      <path fill-rule="evenodd" clip-rule="evenodd" d="M78.9629 91.5284L113.717 79.2924V189.417L78.9629 188.901V91.5284Z" fill="#1A88C0"></path>
      <path fill-rule="evenodd" clip-rule="evenodd" d="M153.182 101.634L113.717 79.2924V188.901L153.182 190.483V101.634Z" fill="#88C0DC"></path>
    </g>
    <g opacity="0.5">
      <path fill-rule="evenodd" clip-rule="evenodd" d="M110.909 168.496H116.814L119.009 189.708L108.715 189.159L110.909 168.496Z" fill="#62B3AE"></path>
      <path d="M113.846 182.573C120.85 182.573 126.528 175.794 126.528 167.431C126.528 159.068 120.85 152.289 113.846 152.289C106.842 152.289 101.164 159.068 101.164 167.431C101.164 175.794 106.842 182.573 113.846 182.573Z" fill="#65C29A"></path>
    </g>
    <g opacity="0.5">
      <path fill-rule="evenodd" clip-rule="evenodd" d="M51.4049 171.467H56.6971L58.6332 188.094H49.4688L51.4049 171.467Z" fill="#B7E2E3"></path>
      <path d="M54.0511 183.606C59.7006 183.606 64.2805 178.272 64.2805 171.693C64.2805 165.113 59.7006 159.779 54.0511 159.779C48.4016 159.779 43.8218 165.113 43.8218 171.693C43.8218 178.272 48.4016 183.606 54.0511 183.606Z" fill="white"></path>
    </g>
    <g opacity="0.5">
      <path fill-rule="evenodd" clip-rule="evenodd" d="M23.9115 178.666H27.7516L29.1714 189.224H22.4917L23.9115 178.666Z" fill="#B7E2E3"></path>
      <path d="M25.8155 185.93C29.5046 185.93 32.4952 182.317 32.4952 177.859C32.4952 173.401 29.5046 169.788 25.8155 169.788C22.1264 169.788 19.1357 173.401 19.1357 177.859C19.1357 182.317 22.1264 185.93 25.8155 185.93Z" fill="white"></path>
    </g>
    <g opacity="0.5">
      <path fill-rule="evenodd" clip-rule="evenodd" d="M137.951 179.215H142.469L144.115 190.45H136.306L137.951 179.215Z" fill="#62B3AE"></path>
      <path d="M140.21 186.544C144.719 186.544 148.374 182.511 148.374 177.536C148.374 172.562 144.719 168.529 140.21 168.529C135.701 168.529 132.046 172.562 132.046 177.536C132.046 182.511 135.701 186.544 140.21 186.544Z" fill="#65C29A"></path>
    </g>
    <path d="M0.0322266 191.548V189.417C25.6863 187.997 51.1467 187.286 76.6394 187.286C102.132 187.286 127.657 187.997 153.182 189.417V191.548C127.689 190.127 102.197 189.417 76.6394 189.417C51.0822 189.417 25.654 190.127 0.0322266 191.548Z" fill="#75C2BA"></path>
    <path fill-rule="evenodd" clip-rule="evenodd" d="M0 190.838C24.9764 189.03 50.3077 188.158 76.0586 188.158C101.809 188.158 127.528 189.062 153.247 190.838V192H0V190.838Z" fill="#75C2BA"></path>
  </g>
  <defs>
    <clipPath id="clip0_2_713">
      <rect width="652" height="192" fill="white"></rect>
    </clipPath>
  </defs>
</svg>
